<?xml version="1.0" encoding="UTF-8" standalone="no"?>
<!-- Created with Inkscape (http://www.inkscape.org/) -->

<svg
   xmlns:dc="http://purl.org/dc/elements/1.1/"
   xmlns:cc="http://creativecommons.org/ns#"
   xmlns:rdf="http://www.w3.org/1999/02/22-rdf-syntax-ns#"
   xmlns:svg="http://www.w3.org/2000/svg"
   xmlns="http://www.w3.org/2000/svg"
   version="1.1"
   width="206.07112"
   height="117.55408"
   id="svg5805">
  <defs
     id="defs5807" />
  <metadata
     id="metadata5810">
    <rdf:RDF>
      <cc:Work
         rdf:about="">
        <dc:format>image/svg+xml</dc:format>
        <dc:type
           rdf:resource="http://purl.org/dc/dcmitype/StillImage" />
        <dc:title></dc:title>
      </cc:Work>
    </rdf:RDF>
  </metadata>
  <g
     transform="translate(-328.39301,-450.56958)"
     id="layer1">
    <rect
       width="206.07112"
       height="117.55408"
       x="328.39301"
       y="450.56958"
       id="rect5790"
       style="color:#000000;fill:#ececec;fill-opacity:1;fill-rule:nonzero;stroke:none;stroke-width:22;marker:none;visibility:visible;display:inline;overflow:visible;enable-background:accumulate" />
    <g
       transform="matrix(-1.5648469,0,0,1.5648469,1211.7358,-895.14722)"
       id="g5786">
      <path
         d="m 537.45389,929.86431 c -9.81102,0 -17.76446,-7.95345 -17.76446,-17.76446 0,-6.45602 3.45736,-12.08939 8.60549,-15.20178 l 6.70622,15.96376 c 0,0 1.18278,2.38831 3.30193,1.32684 1.759,-0.87571 0.81126,-2.96454 0.81126,-2.96454 l -6.65314,-16.16846 c 1.58841,-0.4625 3.25644,-0.72408 4.9927,-0.72408 9.81102,0 17.76446,7.95724 17.76446,17.76826 0,9.81101 -7.95344,17.76446 -17.76446,17.76446 m -38.69817,-22.38565 0.0227,-5.58788 3.33984,-0.0872 c 0,0 0.87571,-0.35256 0.87571,-1.14108 0,-0.78852 -1.05009,-1.13729 -1.05009,-1.13729 l -3.94261,-0.0872 c 0,0 -1.31546,-0.43975 -1.31546,1.31168 0,1.75521 0.0114,4.50745 0.0114,4.50745 l -12.89686,-23.17417 35.08538,0 -20.13002,25.39568 z m -16.47554,2.56269 c -0.64446,-6.38777 -3.97672,-11.97945 -8.8519,-15.62636 l 6.11482,-10.31521 14.33743,25.94157 -11.60035,0 z m -4.38236,0 -13.72708,0 7.05498,-11.90363 c 3.62417,2.85081 6.11483,7.08152 6.6721,11.90363 m -17.63557,19.82296 c -9.81102,0 -17.76446,-7.95345 -17.76446,-17.76446 0,-9.81102 7.95344,-17.76826 17.76446,-17.76826 2.50962,0 4.89035,0.52695 7.05499,1.46331 l -8.31738,14.42084 c 0,0 -2.80152,3.40428 1.05389,4.42026 l 17.77205,0 c -1.23586,8.60549 -8.61308,15.22831 -17.56355,15.22831 m 76.97935,-39.89612 c -2.25184,0 -4.42785,0.33361 -6.48255,0.95532 l -8.55621,-20.80102 c 0,0 -0.36773,-3.46116 -4.04496,-3.46116 l -10.16737,0 c 0,0 -1.92581,0.43597 -1.75143,2.45276 0.17439,2.01679 1.66423,2.27837 1.92581,2.27837 0.26158,0 9.64043,-0.17438 9.64043,-0.17438 l 2.53994,6.30816 -39.20237,0.10615 -2.16085,-3.69998 c 0,0 9.45846,-1.0084 9.81481,-1.0501 0.70891,-0.0796 2.46413,-3.33226 -1.47848,-3.41945 -3.9426,-0.0872 -14.62554,0.0834 -14.62554,0.0834 0,0 -1.43299,0.21608 -1.34579,1.53155 0.0872,1.31167 0.1251,2.2253 0.1251,2.2253 0,0 0.28432,1.32683 1.69077,1.23964 1.39886,-0.0872 1.088,0.004 1.088,0.004 l 2.53995,4.82211 -7.31656,12.68078 c -2.86218,-1.33442 -6.05417,-2.08124 -9.42055,-2.08124 -12.33959,0 -22.34395,10.00057 -22.34395,22.34395 0,12.3358 10.00436,22.34016 22.34395,22.34016 11.55486,0 21.05502,-8.77229 22.22264,-20.0163 l 14.39809,0 0.0682,8.33633 c 0,0 -2.61955,-0.0872 -3.24885,-0.0114 -0.6331,0.0796 -0.83781,0.56865 -0.83781,1.04252 0,0.47766 0.21988,0.98186 1.05768,1.04251 0.8378,0.0682 4.42785,-0.091 4.42785,-0.091 0,0 0.56864,0.29949 0.61414,-1.9296 l 0,-8.38941 24.16361,-30.53622 3.61279,8.59791 c -6.92989,3.79475 -11.62689,11.15681 -11.62689,19.61445 0,12.3358 9.99677,22.34016 22.33637,22.34016 12.34338,0 22.34395,-10.00436 22.34395,-22.34016 0,-12.34338 -10.00057,-22.34395 -22.34395,-22.34395"
         id="path5788"
         style="fill:#808080;fill-opacity:1;fill-rule:nonzero;stroke:none" />
    </g>
  </g>
</svg>
